<mxfile host="app.diagrams.net" agent="Mozilla/5.0 (Windows NT 10.0; Win64; x64) AppleWebKit/537.36 (KHTML, like Gecko) Chrome/141.0.0.0 Safari/537.36" version="28.2.7">
  <diagram name="Page-1" id="MzGk4BcChYRworbhnkPF">
    <mxGraphModel dx="2085" dy="675" grid="1" gridSize="10" guides="1" tooltips="1" connect="1" arrows="1" fold="1" page="1" pageScale="1" pageWidth="850" pageHeight="1100" math="0" shadow="0">
      <root>
        <mxCell id="0" />
        <mxCell id="1" parent="0" />
        <mxCell id="ZaElphzleGRasvH2uKY7-1" value="&lt;font style=&quot;font-size: 14px;&quot;&gt;The Common&lt;/font&gt;" style="rounded=0;whiteSpace=wrap;html=1;" parent="1" vertex="1">
          <mxGeometry x="380" y="220" width="120" height="60" as="geometry" />
        </mxCell>
        <mxCell id="ZaElphzleGRasvH2uKY7-2" value="&lt;font style=&quot;font-size: 14px;&quot;&gt;HDFS&lt;/font&gt;" style="rounded=0;whiteSpace=wrap;html=1;" parent="1" vertex="1">
          <mxGeometry x="260" y="300" width="120" height="60" as="geometry" />
        </mxCell>
        <mxCell id="ZaElphzleGRasvH2uKY7-3" value="&lt;font style=&quot;font-size: 14px;&quot;&gt;YARN&lt;/font&gt;" style="rounded=0;whiteSpace=wrap;html=1;" parent="1" vertex="1">
          <mxGeometry x="500" y="300" width="120" height="60" as="geometry" />
        </mxCell>
        <mxCell id="ZaElphzleGRasvH2uKY7-7" value="&lt;font style=&quot;font-size: 14px;&quot;&gt;Map Reduce&lt;/font&gt;" style="rounded=0;whiteSpace=wrap;html=1;" parent="1" vertex="1">
          <mxGeometry x="380" y="380" width="120" height="60" as="geometry" />
        </mxCell>
        <mxCell id="ZaElphzleGRasvH2uKY7-13" value="" style="endArrow=classic;html=1;rounded=0;entryX=0.5;entryY=1;entryDx=0;entryDy=0;" parent="1" source="ZaElphzleGRasvH2uKY7-7" target="ZaElphzleGRasvH2uKY7-1" edge="1">
          <mxGeometry width="50" height="50" relative="1" as="geometry">
            <mxPoint x="410" y="420" as="sourcePoint" />
            <mxPoint x="460" y="370" as="targetPoint" />
          </mxGeometry>
        </mxCell>
        <mxCell id="ZaElphzleGRasvH2uKY7-14" value="" style="line;strokeWidth=2;html=1;" parent="1" vertex="1">
          <mxGeometry x="220" y="480" width="460" height="10" as="geometry" />
        </mxCell>
        <mxCell id="ZaElphzleGRasvH2uKY7-15" value="&lt;font style=&quot;font-size: 14px;&quot;&gt;Legend:&lt;/font&gt;" style="text;strokeColor=none;fillColor=none;html=1;fontSize=24;fontStyle=1;verticalAlign=middle;align=center;" parent="1" vertex="1">
          <mxGeometry x="220" y="480" width="100" height="40" as="geometry" />
        </mxCell>
        <mxCell id="ZaElphzleGRasvH2uKY7-16" value="Subsystem" style="rounded=0;whiteSpace=wrap;html=1;" parent="1" vertex="1">
          <mxGeometry x="315" y="490" width="85" height="30" as="geometry" />
        </mxCell>
        <mxCell id="ZaElphzleGRasvH2uKY7-17" value="" style="endArrow=classic;html=1;rounded=0;" parent="1" edge="1">
          <mxGeometry width="50" height="50" relative="1" as="geometry">
            <mxPoint x="420" y="510" as="sourcePoint" />
            <mxPoint x="660" y="510" as="targetPoint" />
          </mxGeometry>
        </mxCell>
        <mxCell id="ZaElphzleGRasvH2uKY7-18" value="&lt;font style=&quot;font-size: 14px;&quot;&gt;Depends On&lt;/font&gt;" style="edgeLabel;html=1;align=center;verticalAlign=middle;resizable=0;points=[];" parent="ZaElphzleGRasvH2uKY7-17" vertex="1" connectable="0">
          <mxGeometry x="-0.0148" relative="1" as="geometry">
            <mxPoint as="offset" />
          </mxGeometry>
        </mxCell>
        <mxCell id="vDSU7Jg6GCvEzzB5-tKR-2" value="Core utlities that support all other core modules." style="rounded=0;whiteSpace=wrap;html=1;fillColor=#e3c800;fontColor=#000000;strokeColor=#B09500;" parent="1" vertex="1">
          <mxGeometry x="530" y="190" width="100" height="50" as="geometry" />
        </mxCell>
        <mxCell id="vDSU7Jg6GCvEzzB5-tKR-3" value="" style="endArrow=none;html=1;rounded=0;entryX=0;entryY=0.5;entryDx=0;entryDy=0;" parent="1" target="vDSU7Jg6GCvEzzB5-tKR-2" edge="1">
          <mxGeometry width="50" height="50" relative="1" as="geometry">
            <mxPoint x="500" y="220" as="sourcePoint" />
            <mxPoint x="540" y="190" as="targetPoint" />
          </mxGeometry>
        </mxCell>
        <mxCell id="vDSU7Jg6GCvEzzB5-tKR-4" value="Resource Manager &amp;amp; Job Scheduler.&lt;div&gt;&lt;font&gt;The central platform for managing compute resources across the cluster&lt;/font&gt;&lt;/div&gt;" style="rounded=0;whiteSpace=wrap;html=1;fillColor=#e3c800;fontColor=#000000;strokeColor=#B09500;" parent="1" vertex="1">
          <mxGeometry x="635" y="250" width="110" height="90" as="geometry" />
        </mxCell>
        <mxCell id="vDSU7Jg6GCvEzzB5-tKR-5" value="" style="endArrow=none;html=1;rounded=0;exitX=1;exitY=0;exitDx=0;exitDy=0;entryX=0;entryY=0.5;entryDx=0;entryDy=0;" parent="1" source="ZaElphzleGRasvH2uKY7-3" target="vDSU7Jg6GCvEzzB5-tKR-4" edge="1">
          <mxGeometry width="50" height="50" relative="1" as="geometry">
            <mxPoint x="630" y="340" as="sourcePoint" />
            <mxPoint x="670" y="310" as="targetPoint" />
          </mxGeometry>
        </mxCell>
        <mxCell id="vDSU7Jg6GCvEzzB5-tKR-6" value="Distributed filesystem &lt;font&gt;&lt;font style=&quot;&quot;&gt;U&lt;/font&gt;&lt;font style=&quot;&quot;&gt;tilizes a master-slave model. Data split into blocks and replicated.&lt;/font&gt;&lt;/font&gt;" style="rounded=0;whiteSpace=wrap;html=1;fillColor=#e3c800;fontColor=#000000;strokeColor=#B09500;" parent="1" vertex="1">
          <mxGeometry x="140" y="205" width="110" height="90" as="geometry" />
        </mxCell>
        <mxCell id="vDSU7Jg6GCvEzzB5-tKR-7" value="" style="endArrow=none;html=1;rounded=0;entryX=0.5;entryY=1;entryDx=0;entryDy=0;exitX=0;exitY=0;exitDx=0;exitDy=0;" parent="1" source="ZaElphzleGRasvH2uKY7-2" target="vDSU7Jg6GCvEzzB5-tKR-6" edge="1">
          <mxGeometry width="50" height="50" relative="1" as="geometry">
            <mxPoint x="170" y="400" as="sourcePoint" />
            <mxPoint x="220" y="350" as="targetPoint" />
            <Array as="points" />
          </mxGeometry>
        </mxCell>
        <mxCell id="vDSU7Jg6GCvEzzB5-tKR-8" value="Two-Phase data processor&lt;div&gt;&lt;font&gt;Data is processed in parallel across the cluster. Within containers.&lt;/font&gt;&lt;/div&gt;" style="rounded=0;whiteSpace=wrap;html=1;fillColor=#e3c800;fontColor=#000000;strokeColor=#B09500;" parent="1" vertex="1">
          <mxGeometry x="560" y="380" width="115" height="90" as="geometry" />
        </mxCell>
        <mxCell id="vDSU7Jg6GCvEzzB5-tKR-9" value="" style="endArrow=none;html=1;rounded=0;entryX=1;entryY=1;entryDx=0;entryDy=0;exitX=0;exitY=0.5;exitDx=0;exitDy=0;" parent="1" source="vDSU7Jg6GCvEzzB5-tKR-8" target="ZaElphzleGRasvH2uKY7-7" edge="1">
          <mxGeometry width="50" height="50" relative="1" as="geometry">
            <mxPoint x="590" y="520" as="sourcePoint" />
            <mxPoint x="570" y="500" as="targetPoint" />
            <Array as="points" />
          </mxGeometry>
        </mxCell>
        <mxCell id="I_VBimmwqtJVKOZfFagT-1" value="" style="endArrow=classic;html=1;rounded=0;entryX=0.5;entryY=1;entryDx=0;entryDy=0;exitX=0;exitY=0.5;exitDx=0;exitDy=0;" parent="1" source="ZaElphzleGRasvH2uKY7-7" target="ZaElphzleGRasvH2uKY7-2" edge="1">
          <mxGeometry width="50" height="50" relative="1" as="geometry">
            <mxPoint x="280" y="480" as="sourcePoint" />
            <mxPoint x="330" y="430" as="targetPoint" />
          </mxGeometry>
        </mxCell>
        <mxCell id="I_VBimmwqtJVKOZfFagT-2" value="" style="endArrow=classic;html=1;rounded=0;entryX=0.5;entryY=1;entryDx=0;entryDy=0;exitX=1;exitY=0.5;exitDx=0;exitDy=0;" parent="1" source="ZaElphzleGRasvH2uKY7-7" target="ZaElphzleGRasvH2uKY7-3" edge="1">
          <mxGeometry width="50" height="50" relative="1" as="geometry">
            <mxPoint x="620" y="520" as="sourcePoint" />
            <mxPoint x="520" y="440" as="targetPoint" />
          </mxGeometry>
        </mxCell>
        <mxCell id="I_VBimmwqtJVKOZfFagT-3" value="" style="endArrow=classic;html=1;rounded=0;entryX=0;entryY=0.5;entryDx=0;entryDy=0;exitX=0.5;exitY=0;exitDx=0;exitDy=0;" parent="1" source="ZaElphzleGRasvH2uKY7-2" target="ZaElphzleGRasvH2uKY7-1" edge="1">
          <mxGeometry width="50" height="50" relative="1" as="geometry">
            <mxPoint x="410" y="360" as="sourcePoint" />
            <mxPoint x="310" y="280" as="targetPoint" />
          </mxGeometry>
        </mxCell>
        <mxCell id="I_VBimmwqtJVKOZfFagT-4" value="" style="endArrow=classic;html=1;rounded=0;entryX=1;entryY=0.5;entryDx=0;entryDy=0;exitX=0.5;exitY=0;exitDx=0;exitDy=0;" parent="1" source="ZaElphzleGRasvH2uKY7-3" target="ZaElphzleGRasvH2uKY7-1" edge="1">
          <mxGeometry width="50" height="50" relative="1" as="geometry">
            <mxPoint x="640" y="350" as="sourcePoint" />
            <mxPoint x="540" y="270" as="targetPoint" />
          </mxGeometry>
        </mxCell>
        <mxCell id="I_VBimmwqtJVKOZfFagT-6" style="edgeStyle=orthogonalEdgeStyle;rounded=0;orthogonalLoop=1;jettySize=auto;html=1;exitX=0.5;exitY=0;exitDx=0;exitDy=0;" parent="1" edge="1">
          <mxGeometry relative="1" as="geometry">
            <mxPoint x="279.86" y="440" as="targetPoint" />
            <mxPoint x="279.86" y="390" as="sourcePoint" />
          </mxGeometry>
        </mxCell>
        <mxCell id="I_VBimmwqtJVKOZfFagT-7" value="&lt;font style=&quot;font-size: 14px;&quot;&gt;JVM&lt;/font&gt;" style="rounded=0;whiteSpace=wrap;html=1;" parent="1" vertex="1">
          <mxGeometry x="240" y="440" width="60" height="30" as="geometry" />
        </mxCell>
        <mxCell id="I_VBimmwqtJVKOZfFagT-8" style="edgeStyle=orthogonalEdgeStyle;rounded=0;orthogonalLoop=1;jettySize=auto;html=1;exitX=0.58;exitY=-0.008;exitDx=0;exitDy=0;exitPerimeter=0;" parent="1" edge="1">
          <mxGeometry relative="1" as="geometry">
            <mxPoint x="300.0000000000001" y="440.0000000000001" as="targetPoint" />
            <mxPoint x="300.4" y="390.48" as="sourcePoint" />
          </mxGeometry>
        </mxCell>
        <mxCell id="I_VBimmwqtJVKOZfFagT-9" style="edgeStyle=orthogonalEdgeStyle;rounded=0;orthogonalLoop=1;jettySize=auto;html=1;exitX=0.75;exitY=0;exitDx=0;exitDy=0;" parent="1" edge="1">
          <mxGeometry relative="1" as="geometry">
            <mxPoint x="240" y="440" as="targetPoint" />
            <mxPoint x="240" y="390" as="sourcePoint" />
          </mxGeometry>
        </mxCell>
        <mxCell id="I_VBimmwqtJVKOZfFagT-10" style="edgeStyle=orthogonalEdgeStyle;rounded=0;orthogonalLoop=1;jettySize=auto;html=1;exitX=0.75;exitY=0;exitDx=0;exitDy=0;" parent="1" edge="1">
          <mxGeometry relative="1" as="geometry">
            <mxPoint x="259.86" y="440" as="targetPoint" />
            <mxPoint x="259.86" y="390" as="sourcePoint" />
          </mxGeometry>
        </mxCell>
        <mxCell id="AhfG7yE6Urii9o7t-FWB-1" value="" style="rounded=0;whiteSpace=wrap;html=1;" vertex="1" parent="1">
          <mxGeometry x="-80" y="60" width="120" height="60" as="geometry" />
        </mxCell>
        <mxCell id="AhfG7yE6Urii9o7t-FWB-2" value="" style="rounded=0;whiteSpace=wrap;html=1;" vertex="1" parent="1">
          <mxGeometry x="810" y="640" width="120" height="60" as="geometry" />
        </mxCell>
        <mxCell id="AhfG7yE6Urii9o7t-FWB-3" value="" style="rounded=0;whiteSpace=wrap;html=1;" vertex="1" parent="1">
          <mxGeometry x="-80" y="650" width="120" height="60" as="geometry" />
        </mxCell>
        <mxCell id="AhfG7yE6Urii9o7t-FWB-4" value="" style="rounded=0;whiteSpace=wrap;html=1;" vertex="1" parent="1">
          <mxGeometry x="800" y="40" width="120" height="60" as="geometry" />
        </mxCell>
      </root>
    </mxGraphModel>
  </diagram>
</mxfile>
